<?xml version="1.0" standalone="no"?>
<!DOCTYPE svg PUBLIC "-//W3C//DTD SVG 20010904//EN"
 "http://www.w3.org/TR/2001/REC-SVG-20010904/DTD/svg10.dtd">
<svg version="1.0" xmlns="http://www.w3.org/2000/svg"
 width="3464.000000pt" height="3464.000000pt" viewBox="0 0 3464.000000 3464.000000"
 preserveAspectRatio="xMidYMid meet">

<g transform="translate(0.000000,3464.000000) scale(0.100000,-0.100000)"
fill="#000000" stroke="none">
<path d="M17250 33427 c-13 -7 -35 -28 -48 -47 -24 -36 -25 -50 -6 -146 5 -25
0 -36 -24 -61 -17 -16 -52 -36 -78 -43 -44 -13 -52 -12 -128 15 l-81 29 -395
6 -395 6 -115 42 -115 42 -400 0 -400 -1 -120 -41 -120 -41 -260 -7 -260 -7
-99 -37 c-56 -21 -134 -41 -179 -47 -44 -5 -125 -26 -181 -45 -55 -19 -135
-39 -176 -45 -99 -13 -211 -51 -284 -95 -37 -22 -137 -60 -260 -100 -280 -90
-423 -142 -467 -169 -20 -13 -66 -37 -101 -53 -36 -16 -137 -77 -224 -135 -87
-58 -197 -123 -244 -145 -47 -22 -116 -63 -155 -91 -83 -60 -91 -66 -215 -147
-52 -34 -122 -86 -155 -117 -33 -30 -121 -95 -195 -145 -74 -49 -151 -106
-170 -127 -19 -20 -93 -76 -164 -123 -84 -56 -169 -124 -239 -192 -70 -67
-146 -128 -212 -170 -140 -89 -173 -115 -206 -168 -34 -54 -36 -85 -9 -130 27
-44 74 -62 162 -62 84 0 142 -22 176 -65 27 -34 27 -48 3 -101 -34 -74 -151
-185 -294 -280 -73 -48 -162 -115 -198 -149 -36 -34 -95 -79 -130 -100 -112
-69 -163 -108 -280 -217 -68 -64 -166 -142 -244 -194 -71 -48 -162 -109 -202
-135 -40 -27 -105 -64 -145 -82 -40 -19 -129 -70 -197 -115 -68 -45 -127 -82
-132 -82 -34 0 -273 -99 -321 -132 -67 -47 -78 -70 -51 -106 37 -50 43 -50
725 -51 l637 -1 82 -26 c110 -35 139 -63 139 -137 0 -58 -28 -151 -58 -195
-11 -15 -47 -85 -81 -157 -76 -158 -277 -752 -291 -861 -5 -39 -26 -120 -46
-180 -31 -89 -39 -130 -45 -224 -6 -96 -13 -133 -46 -225 l-38 -110 -3 -1360
-2 -1360 42 -135 43 -135 0 -1110 c0 -1063 -1 -1112 -19 -1160 -37 -99 -47
-104 -411 -225 -224 -74 -259 -89 -335 -140 -148 -100 -175 -141 -261 -395
l-54 -160 0 -455 0 -455 41 -120 c23 -66 45 -149 49 -185 4 -36 24 -115 45
-176 21 -62 43 -150 49 -195 13 -110 378 -1203 451 -1354 90 -185 90 -186 90
-595 l0 -357 45 -135 c40 -120 45 -146 45 -224 0 -184 94 -367 295 -575 158
-163 155 -152 155 -510 0 -310 -1 -316 -70 -386 -40 -41 -72 -42 -147 -6 -83
41 -142 100 -228 228 -101 150 -143 177 -211 136 -55 -34 -64 -69 -64 -255 l0
-165 41 -128 c22 -70 44 -162 49 -203 15 -135 147 -493 253 -685 53 -97 143
-283 165 -340 l26 -70 4 -375 3 -375 -32 -105 c-56 -189 -59 -207 -59 -477 l0
-252 -41 -128 c-42 -128 -42 -128 -49 -333 l-7 -205 -39 -105 -39 -105 0 -530
c0 -509 1 -531 20 -559 10 -16 34 -35 53 -43 31 -13 38 -12 110 21 42 18 87
37 99 40 12 4 38 29 57 56 61 84 89 60 80 -66 -5 -57 -2 -97 10 -142 13 -53
16 -124 16 -422 l0 -359 42 -123 43 -123 5 -435 6 -435 38 -105 c32 -89 39
-123 46 -225 6 -100 14 -138 44 -225 21 -58 41 -138 46 -179 6 -41 27 -128 49
-195 21 -67 42 -150 46 -186 11 -98 314 -1005 366 -1092 21 -36 39 -70 39 -75
0 -11 236 -481 250 -498 5 -6 16 -31 25 -54 23 -67 103 -190 167 -256 31 -33
99 -123 150 -200 52 -77 131 -196 177 -265 73 -109 116 -157 340 -383 253
-256 301 -296 481 -405 19 -11 78 -64 130 -117 81 -82 137 -124 374 -283 153
-103 304 -204 335 -225 31 -21 76 -48 101 -61 43 -23 288 -106 310 -106 7 0
42 -13 80 -30 94 -41 150 -38 150 9 0 9 -38 79 -85 157 -93 154 -105 183 -105
261 0 72 24 88 135 88 90 0 158 -20 215 -65 65 -50 214 -142 254 -156 21 -8
62 -28 90 -45 27 -17 68 -38 90 -45 21 -8 61 -28 88 -44 26 -17 52 -30 56 -30
4 0 142 -67 307 -149 280 -140 318 -155 575 -240 151 -51 295 -104 320 -119
25 -15 61 -34 80 -42 19 -8 112 -53 205 -100 167 -85 234 -112 405 -165 47
-15 101 -36 120 -49 45 -29 304 -156 317 -156 6 0 93 -55 194 -123 101 -68
204 -131 229 -141 55 -22 133 -68 270 -162 58 -39 128 -84 155 -99 33 -19 196
-173 475 -450 234 -232 440 -432 458 -444 46 -32 92 -31 135 2 47 36 57 83 57
268 0 150 0 152 31 209 40 75 80 99 136 82 52 -15 114 -58 193 -132 85 -79
131 -104 196 -103 74 0 131 30 377 199 120 82 246 166 280 186 34 21 105 67
157 103 52 36 140 95 195 131 55 36 125 89 155 118 30 30 116 94 190 144 130
87 153 109 604 560 448 449 473 476 555 600 47 71 126 189 175 263 49 74 111
159 139 189 73 80 145 185 183 268 18 40 59 111 91 159 32 47 75 111 96 142
20 31 111 205 202 386 122 245 176 366 211 470 25 77 63 172 84 210 34 63 150
384 231 640 41 130 68 183 118 228 42 38 76 46 112 26 37 -19 87 -115 133
-251 l46 -134 0 -397 c0 -427 2 -446 51 -481 59 -41 107 -8 222 154 49 69 103
149 119 178 17 29 59 84 93 121 79 87 137 172 186 275 21 44 48 97 59 116 11
19 31 60 45 90 13 30 33 71 44 90 11 19 35 64 52 100 17 36 41 85 54 110 21
43 178 502 283 830 43 132 51 170 55 260 5 90 12 123 48 225 l42 120 6 381 c6
408 3 383 60 447 35 39 69 55 132 62 66 8 111 34 141 83 l23 37 0 815 0 815
-40 115 -40 115 -5 1475 -6 1475 -42 124 -42 123 0 194 c0 229 6 254 92 380
42 62 65 111 98 209 23 70 58 154 76 185 46 75 94 214 94 270 0 26 19 104 44
182 l45 136 1 214 c1 117 1 223 1 235 -1 13 -12 30 -25 38 -45 30 -101 -8
-176 -118 -58 -86 -136 -137 -207 -137 -42 0 -87 56 -112 137 -19 64 -22 96
-21 268 l0 196 56 167 c64 190 67 197 131 288 34 49 61 109 107 238 l60 171 6
440 6 440 68 195 c37 107 82 222 100 255 19 33 59 137 91 230 31 94 72 195 90
225 46 78 84 188 94 278 5 42 25 124 45 182 20 58 41 139 46 180 5 48 40 168
93 330 80 240 85 261 90 360 4 90 11 122 46 223 l41 118 0 327 0 327 -66 195
c-36 107 -79 223 -95 257 -35 73 -110 159 -178 203 -74 47 -196 90 -284 100
-96 11 -411 117 -461 155 -19 14 -44 47 -57 73 -33 68 -29 127 17 247 l38 100
6 485 6 485 39 110 38 110 7 345 6 345 39 105 39 105 6 390 6 390 40 105 39
105 0 965 0 965 -41 125 c-23 69 -45 152 -48 185 -8 65 -38 169 -67 226 -9 19
-40 69 -68 110 -77 111 -93 136 -152 229 -75 119 -202 247 -319 322 -52 33
-128 83 -168 110 -44 30 -114 65 -178 88 -120 44 -169 74 -225 141 -65 78 -82
127 -89 264 -7 119 -8 123 -109 420 -56 165 -122 362 -147 437 -28 87 -57 155
-81 190 -89 131 -106 159 -153 250 -27 53 -88 156 -136 230 -47 73 -107 165
-132 203 -31 48 -154 179 -386 413 -292 295 -355 353 -441 409 -100 67 -283
188 -665 443 -172 114 -256 162 -520 293 -226 112 -354 169 -452 202 -85 28
-205 80 -315 136 -119 59 -225 105 -317 135 -77 24 -172 62 -211 84 -96 53
-734 267 -836 279 -50 7 -237 64 -586 181 -348 115 -536 173 -586 180 -45 5
-170 41 -314 90 -242 80 -296 91 -343 67z m-1226 -913 c60 -15 153 -29 235
-34 75 -5 159 -14 186 -19 28 -5 95 -15 149 -21 55 -7 121 -20 148 -31 26 -10
91 -26 145 -35 54 -9 133 -29 175 -45 43 -16 118 -35 167 -44 49 -8 114 -27
145 -41 30 -14 86 -34 123 -44 37 -10 133 -49 213 -86 80 -36 174 -79 210 -95
36 -15 110 -51 165 -80 55 -29 143 -74 195 -101 52 -27 102 -55 110 -63 8 -7
35 -22 60 -33 25 -11 82 -49 127 -83 44 -35 129 -100 188 -144 230 -173 351
-280 592 -525 52 -52 113 -122 135 -155 22 -33 64 -85 92 -115 28 -31 76 -89
106 -129 30 -40 67 -87 81 -105 15 -17 38 -53 52 -81 14 -27 38 -66 53 -86 16
-19 52 -73 79 -118 28 -45 82 -133 122 -196 40 -63 81 -142 92 -176 12 -34 36
-89 55 -123 19 -34 45 -91 59 -126 13 -36 51 -119 84 -185 41 -82 67 -150 83
-215 12 -52 33 -122 47 -155 14 -33 34 -102 44 -154 20 -97 47 -149 90 -172
54 -28 63 29 29 191 -11 52 -22 147 -26 210 -5 83 -15 141 -35 208 -16 51 -36
150 -45 220 -8 70 -35 210 -59 312 -24 102 -49 212 -55 245 -7 33 -22 83 -35
110 -13 28 -31 79 -40 115 -9 36 -32 96 -51 133 -19 37 -39 91 -45 120 -6 29
-29 89 -50 134 -22 45 -39 88 -39 95 0 23 -165 356 -210 423 -15 22 -40 65
-55 95 -15 30 -39 68 -52 84 -13 16 -35 50 -49 75 -78 143 -248 355 -457 567
-89 91 -101 108 -93 131 10 25 71 9 116 -29 67 -58 125 -97 181 -122 31 -13
101 -63 159 -113 133 -113 385 -359 486 -475 44 -50 111 -125 150 -167 40 -43
83 -100 97 -127 15 -27 58 -89 96 -139 43 -55 94 -138 132 -215 34 -68 76
-147 94 -175 52 -80 92 -166 120 -256 15 -46 40 -107 56 -135 16 -28 35 -80
44 -117 8 -37 29 -103 45 -147 16 -44 38 -124 49 -179 11 -54 34 -154 51 -221
17 -68 36 -175 41 -239 5 -64 18 -147 28 -186 22 -79 34 -231 35 -417 1 -116
3 -129 22 -149 41 -40 73 -10 95 89 5 26 23 65 38 87 16 22 34 61 41 85 6 25
27 79 46 121 23 52 39 110 50 180 9 57 29 146 46 196 31 98 41 184 54 477 12
256 -20 636 -56 681 -31 39 -61 263 -38 283 25 20 54 -13 84 -95 15 -43 41
-98 56 -122 15 -24 35 -69 44 -100 9 -30 26 -76 38 -101 13 -25 34 -76 46
-115 13 -38 34 -94 47 -124 13 -30 33 -100 45 -155 11 -56 31 -127 45 -160 15
-35 28 -95 34 -150 5 -50 16 -129 24 -176 8 -47 23 -157 32 -245 31 -279 19
-812 -22 -1015 -8 -41 -21 -124 -29 -185 -10 -72 -24 -131 -41 -170 -15 -33
-36 -105 -46 -160 -11 -55 -35 -143 -53 -195 -19 -52 -43 -122 -54 -155 -36
-111 -89 -243 -112 -282 -12 -21 -33 -68 -45 -104 -13 -37 -56 -118 -98 -180
-41 -63 -82 -129 -91 -147 -10 -19 -40 -67 -67 -108 -51 -76 -79 -92 -97 -56
-5 9 -10 150 -10 312 0 162 -6 367 -12 455 -6 88 -15 241 -20 340 -5 110 -16
219 -29 280 -11 55 -25 174 -31 265 -14 213 -25 279 -49 304 -16 16 -23 17
-35 7 -25 -21 -36 -106 -46 -386 -6 -183 -15 -289 -25 -330 -9 -33 -22 -139
-30 -235 -11 -143 -19 -192 -43 -266 -17 -50 -33 -118 -37 -150 -15 -126 -76
-419 -95 -460 -20 -41 -43 -60 -61 -49 -14 10 -27 74 -39 200 -12 131 -17 156
-60 290 -16 50 -34 117 -40 149 -7 33 -21 80 -32 105 -11 25 -31 88 -44 140
-13 52 -35 119 -49 149 -14 31 -34 90 -45 133 -11 43 -38 115 -60 160 -22 46
-40 89 -40 96 0 8 -14 41 -30 74 -17 33 -38 88 -46 122 -9 34 -30 87 -48 117
-19 30 -39 80 -46 110 -7 30 -29 87 -50 125 -21 39 -45 95 -54 126 -8 31 -24
67 -34 80 -11 13 -31 48 -46 77 -28 55 -48 65 -66 33 -16 -32 -12 -62 20 -129
16 -35 36 -103 45 -153 9 -49 29 -127 46 -172 17 -45 39 -125 50 -177 11 -52
28 -118 39 -147 20 -54 29 -116 55 -363 8 -80 26 -185 40 -235 14 -51 25 -116
25 -150 0 -33 9 -132 20 -220 11 -88 20 -179 20 -202 0 -42 40 -338 60 -442
23 -120 5 -291 -29 -291 -14 0 -36 22 -95 97 -47 61 -85 93 -214 184 -35 24
-89 65 -122 90 -32 25 -92 65 -132 89 -40 24 -107 65 -148 91 -41 26 -127 73
-190 104 -63 31 -133 66 -155 77 -22 12 -62 32 -90 46 -27 13 -63 34 -80 47
-16 12 -86 49 -155 83 -188 92 -470 262 -470 284 0 3 -17 17 -37 29 -170 102
-563 490 -705 696 -24 34 -68 97 -99 140 -31 43 -65 99 -77 125 -11 26 -34 64
-51 85 -16 21 -37 64 -46 96 -19 67 -53 99 -81 76 -27 -22 -14 -111 28 -199
20 -41 42 -95 48 -120 6 -25 29 -77 49 -116 21 -39 44 -88 51 -110 7 -21 48
-111 90 -199 43 -88 82 -177 88 -198 6 -20 29 -65 51 -98 23 -34 41 -67 41
-74 0 -8 16 -35 36 -61 20 -26 46 -68 58 -93 32 -69 113 -198 171 -271 28 -36
70 -92 93 -125 39 -55 67 -93 178 -237 67 -87 345 -368 391 -395 51 -30 103
-87 103 -113 0 -25 -37 -50 -73 -50 -15 0 -55 14 -88 31 -47 25 -80 34 -147
40 -48 4 -127 20 -177 35 -49 14 -124 35 -165 46 -41 10 -120 40 -175 65 -284
129 -344 158 -385 188 -25 18 -61 40 -80 50 -19 10 -51 30 -70 45 -19 15 -80
60 -135 100 -125 92 -409 369 -484 472 -241 332 -333 487 -401 673 -18 50 -45
113 -61 140 -15 28 -34 76 -43 108 -8 33 -26 75 -40 95 -13 21 -32 64 -41 97
-9 33 -25 74 -35 91 -9 17 -23 48 -30 70 -7 21 -37 86 -66 144 -30 58 -54 111
-54 117 0 6 -16 35 -36 64 -20 30 -47 77 -60 104 -13 28 -50 87 -81 131 -32
45 -73 104 -92 130 -19 27 -60 80 -90 117 -31 38 -70 87 -88 110 -81 106 -121
149 -163 176 -25 16 -72 53 -105 83 -33 30 -105 85 -160 121 -55 36 -118 80
-140 97 -22 16 -59 42 -82 57 -24 16 -43 33 -43 39 0 32 97 22 190 -19 30 -13
77 -29 105 -36 27 -7 77 -28 111 -47 33 -19 68 -34 77 -34 8 0 46 -16 84 -36
37 -20 92 -45 122 -55 30 -10 69 -31 88 -45 18 -14 55 -35 81 -46 26 -11 61
-30 77 -43 17 -12 53 -34 80 -48 28 -14 86 -54 130 -89 44 -36 106 -81 138
-101 32 -21 90 -72 130 -114 40 -43 113 -119 162 -169 50 -51 115 -119 145
-153 30 -34 75 -84 100 -111 25 -27 54 -61 66 -76 22 -29 44 -26 44 4 0 10
-16 42 -35 72 -19 30 -35 60 -35 67 0 23 -92 187 -125 223 -18 19 -41 51 -50
70 -10 19 -31 52 -47 73 -17 20 -40 57 -51 81 -34 69 -246 305 -494 550 -148
147 -195 187 -270 229 -84 48 -141 85 -194 126 -67 52 -116 81 -379 226 -58
31 -143 70 -188 86 -46 16 -104 40 -129 54 -25 14 -66 31 -92 39 -25 8 -70 23
-98 35 -29 11 -98 32 -153 46 -56 14 -135 39 -176 55 -52 21 -106 33 -177 41
-56 5 -131 19 -167 29 -111 32 -157 40 -323 55 -89 8 -229 22 -312 32 -161 19
-433 21 -660 3 -66 -5 -182 -14 -257 -20 -144 -11 -194 -6 -212 23 -20 32 14
48 132 63 83 10 126 21 169 42 51 25 80 31 228 46 94 9 249 21 345 26 96 6
231 15 300 20 285 21 490 23 610 7 63 -9 167 -19 230 -22 126 -7 373 -49 521
-89 52 -13 130 -30 174 -36 129 -19 603 -183 815 -282 58 -28 134 -61 170 -75
36 -13 90 -39 120 -57 30 -18 71 -39 90 -46 19 -8 53 -26 75 -40 22 -15 50
-30 63 -34 12 -4 43 -23 67 -42 25 -18 71 -47 103 -62 80 -40 183 -100 207
-122 11 -9 74 -50 139 -90 66 -39 153 -99 194 -133 42 -34 106 -84 143 -112
96 -71 249 -198 354 -295 50 -45 119 -106 155 -135 36 -29 146 -137 245 -241
266 -277 319 -334 356 -385 19 -26 67 -84 107 -130 129 -147 164 -190 210
-253 25 -33 64 -83 86 -111 47 -57 136 -186 136 -198 0 -26 47 -100 72 -113
59 -31 70 -4 42 108 -19 81 -32 115 -60 158 -13 19 -32 68 -43 108 -11 40 -34
97 -51 127 -17 29 -38 78 -46 107 -9 29 -25 65 -36 80 -10 15 -32 58 -47 96
-16 37 -40 87 -55 110 -14 23 -26 45 -26 50 0 14 -98 179 -135 228 -20 25 -43
63 -51 83 -8 20 -27 48 -41 63 -15 15 -43 52 -62 82 -20 30 -64 90 -98 133
-35 43 -88 112 -118 153 -73 98 -228 284 -280 335 -23 22 -99 92 -170 155 -70
63 -156 140 -189 171 -34 31 -102 84 -152 117 -49 34 -121 89 -160 125 -58 53
-115 97 -211 162 -80 54 -199 125 -209 125 -7 0 -43 20 -79 46 -77 52 -339
194 -414 224 -28 11 -69 31 -91 45 -22 14 -64 35 -93 46 -28 11 -66 29 -82 39
-17 10 -62 27 -101 38 -80 22 -101 32 -159 73 -23 16 -71 35 -110 44 -38 9
-83 25 -100 35 -16 10 -67 25 -111 33 -45 9 -116 29 -159 46 -42 17 -111 40
-153 51 -42 10 -104 28 -136 40 -33 11 -108 29 -168 41 -60 11 -135 31 -168
45 -74 30 -120 40 -245 54 -55 6 -140 22 -190 35 -49 14 -144 30 -210 36 -66
5 -149 14 -185 19 -36 6 -159 13 -275 16 -219 6 -300 16 -309 40 -8 21 29 40
119 62 185 46 344 59 845 68 388 7 697 -13 1035 -68 66 -10 167 -23 225 -28
71 -6 135 -18 197 -39 50 -17 135 -38 189 -47 55 -9 133 -29 175 -45 42 -16
112 -36 155 -44 43 -9 98 -27 122 -40 25 -14 120 -50 211 -81 91 -30 202 -71
246 -91 243 -109 325 -149 366 -179 25 -18 75 -47 110 -63 35 -17 96 -50 134
-75 39 -25 101 -65 140 -88 73 -45 253 -175 317 -228 20 -18 56 -46 80 -63 97
-69 604 -564 688 -671 30 -38 82 -100 116 -138 33 -37 78 -97 99 -133 21 -36
42 -68 46 -71 5 -3 24 -33 44 -67 19 -35 46 -74 60 -87 14 -13 36 -47 49 -77
16 -34 36 -59 58 -72 41 -25 55 -36 61 -53 2 -7 7 -10 11 -7 4 4 -2 24 -13 45
-12 21 -21 49 -21 62 0 33 -27 93 -56 123 -14 15 -30 46 -35 70 -6 24 -28 73
-49 109 -21 36 -42 77 -45 91 -4 14 -23 47 -44 72 -21 25 -44 60 -51 79 -19
49 -74 135 -171 266 -48 64 -95 137 -106 162 -11 25 -51 81 -89 124 -38 44
-88 103 -110 133 -100 131 -352 395 -485 509 -13 11 -38 36 -54 55 -17 19 -68
62 -115 97 -47 34 -119 91 -160 127 -41 35 -106 81 -145 101 -38 21 -95 56
-125 80 -30 23 -75 52 -100 64 -25 13 -63 35 -85 50 -96 65 -521 269 -655 315
-53 18 -110 40 -128 49 -17 9 -73 25 -124 35 -51 10 -120 31 -153 45 -35 16
-102 33 -165 42 -152 23 -210 56 -142 82 46 18 73 21 192 15 74 -3 150 -13
214 -29z m-3006 -2339 c72 -14 135 -20 397 -40 133 -10 315 -44 405 -75 47
-16 120 -38 162 -49 42 -11 147 -55 233 -96 86 -42 173 -82 194 -90 20 -7 92
-49 160 -94 67 -44 128 -81 135 -81 25 0 191 -120 261 -188 39 -38 86 -79 105
-92 46 -31 232 -223 320 -330 94 -116 227 -289 248 -323 68 -112 228 -366 247
-391 32 -43 89 -160 110 -226 9 -30 30 -76 46 -101 16 -25 36 -70 45 -100 9
-30 32 -79 51 -110 19 -31 40 -79 47 -107 8 -28 30 -77 51 -110 32 -53 37 -70
42 -142 l6 -82 -24 4 c-16 2 -35 20 -56 53 -17 28 -44 65 -59 83 -15 18 -41
57 -59 85 -18 29 -51 84 -75 122 -49 79 -143 186 -370 422 -168 174 -200 198
-228 169 -16 -16 -16 -19 5 -54 12 -20 31 -56 42 -80 12 -24 32 -57 45 -75 13
-18 36 -57 51 -87 15 -30 36 -66 46 -79 11 -13 26 -46 34 -74 8 -28 28 -73 43
-101 16 -28 37 -76 47 -106 10 -30 31 -78 47 -106 15 -28 35 -75 44 -105 9
-30 33 -85 54 -124 21 -38 46 -99 55 -135 9 -36 32 -104 51 -152 41 -106 43
-140 8 -175 -21 -21 -31 -24 -62 -19 -20 4 -82 11 -138 16 -119 11 -179 24
-254 58 -30 13 -87 35 -127 48 -76 25 -257 126 -336 186 -26 20 -76 50 -112
68 -44 22 -80 50 -108 82 -22 27 -100 99 -171 161 -72 61 -196 175 -276 252
-225 218 -417 392 -505 458 -44 33 -100 79 -125 102 -25 23 -74 58 -110 79
-36 21 -87 56 -114 78 -60 51 -229 153 -344 208 -48 23 -123 59 -167 80 -44
22 -143 59 -220 84 -373 121 -453 136 -750 146 -226 7 -291 17 -282 43 2 6 26
20 53 31 43 16 93 19 384 25 588 12 747 9 890 -18 148 -28 474 -107 501 -122
11 -5 68 -27 127 -48 111 -40 255 -100 307 -128 17 -9 55 -30 85 -46 30 -17
69 -43 86 -57 48 -41 119 -66 149 -52 22 10 25 18 25 59 0 66 -14 109 -55 172
-19 30 -42 78 -51 105 -9 28 -27 68 -40 89 -13 20 -33 60 -45 88 -11 29 -33
70 -48 93 -16 23 -49 73 -74 111 -25 39 -105 131 -179 206 -106 110 -156 152
-248 211 -140 91 -354 204 -424 225 -28 8 -80 28 -116 43 -65 29 -255 68 -430
90 -96 11 -199 43 -232 70 -22 18 -22 20 -6 36 10 10 48 23 85 30 101 18 394
17 491 -1z m9853 -904 c17 -51 24 -626 10 -746 -6 -52 -20 -131 -30 -177 -11
-46 -29 -162 -41 -258 -16 -128 -28 -191 -47 -235 -14 -33 -35 -96 -48 -140
-12 -44 -34 -103 -47 -130 -14 -28 -33 -75 -41 -106 -9 -30 -28 -73 -42 -93
-14 -21 -57 -95 -96 -165 -71 -129 -118 -197 -247 -363 -159 -203 -343 -388
-386 -388 -27 0 -51 25 -60 62 -8 36 17 170 58 309 18 64 39 156 46 205 7 55
23 115 41 156 16 38 38 108 49 158 11 51 30 105 44 127 14 21 32 72 41 113 10
41 28 94 42 118 13 24 33 69 44 100 11 31 34 80 52 107 18 28 54 94 81 147 26
53 88 159 138 235 50 76 104 169 119 207 16 38 54 117 84 175 48 90 59 122 76
218 11 62 29 138 39 169 11 32 29 95 40 142 11 47 25 92 32 99 15 18 35 1 49
-46z m112 -1479 c45 -50 46 -510 1 -799 -17 -110 -35 -192 -54 -238 -15 -39
-33 -97 -40 -130 -7 -33 -25 -85 -40 -115 -15 -30 -35 -81 -44 -114 -10 -32
-32 -80 -50 -106 -18 -26 -39 -69 -46 -96 -20 -76 -125 -264 -187 -335 -119
-136 -122 -221 -11 -293 55 -36 107 -91 173 -186 21 -30 63 -79 92 -108 30
-30 65 -72 80 -95 14 -23 38 -56 54 -72 16 -17 37 -59 49 -96 11 -37 27 -73
36 -80 34 -28 69 -98 122 -244 103 -287 111 -313 122 -401 6 -49 21 -129 33
-179 19 -80 22 -115 21 -330 -1 -247 -17 -407 -50 -524 -21 -70 -14 -175 16
-236 12 -25 52 -75 89 -112 36 -38 83 -93 104 -123 20 -30 54 -77 76 -105 22
-27 52 -72 67 -100 14 -27 41 -68 58 -90 38 -47 92 -136 135 -222 17 -34 36
-65 42 -68 16 -11 35 -60 63 -167 14 -51 46 -140 71 -197 45 -103 83 -224 124
-393 12 -48 26 -99 32 -115 10 -27 16 -68 58 -398 11 -88 26 -187 32 -220 14
-70 17 -138 26 -569 8 -449 -16 -1026 -52 -1236 -8 -47 -19 -125 -24 -175 -6
-49 -17 -157 -26 -240 -9 -82 -29 -208 -45 -280 -16 -71 -34 -167 -39 -212 -6
-46 -19 -100 -30 -121 -11 -21 -32 -101 -46 -177 -15 -76 -42 -180 -60 -230
-18 -51 -40 -135 -48 -188 -9 -52 -26 -116 -40 -143 -13 -27 -34 -89 -46 -137
-12 -49 -36 -117 -53 -150 -17 -34 -41 -102 -54 -152 -15 -61 -53 -152 -117
-285 -52 -107 -102 -220 -111 -250 -8 -30 -31 -79 -50 -109 -20 -30 -43 -76
-52 -103 -8 -26 -33 -68 -53 -93 -21 -26 -43 -63 -50 -83 -6 -20 -25 -54 -43
-76 -18 -21 -43 -64 -57 -95 -13 -31 -36 -72 -51 -91 -15 -19 -49 -69 -75
-110 -27 -41 -65 -93 -86 -116 -20 -23 -46 -62 -57 -86 -11 -25 -45 -72 -76
-104 -31 -33 -66 -79 -78 -103 -12 -25 -49 -72 -84 -105 -34 -34 -81 -86 -104
-116 -70 -91 -224 -247 -261 -265 -19 -9 -52 -42 -76 -76 -24 -32 -60 -70 -80
-83 -21 -14 -60 -48 -88 -76 -27 -29 -70 -63 -95 -78 -25 -14 -62 -40 -82 -58
-20 -18 -49 -39 -65 -47 -16 -8 -43 -36 -61 -61 -23 -32 -44 -49 -72 -57 -50
-15 -74 -8 -137 40 -29 22 -83 49 -120 62 -38 12 -93 34 -123 49 -30 15 -66
31 -79 35 -33 10 -217 96 -322 150 -47 25 -115 51 -151 60 -104 24 -278 83
-338 114 -30 16 -73 34 -95 41 -22 7 -67 27 -100 45 -33 18 -78 38 -100 45
-22 7 -71 29 -110 50 -38 21 -81 41 -95 45 -13 4 -46 22 -72 40 -25 18 -63 36
-84 40 -21 3 -72 24 -113 44 -42 21 -87 42 -101 46 -14 4 -54 24 -90 46 -36
21 -87 45 -112 53 -26 7 -69 27 -95 43 -26 16 -73 38 -103 47 -110 36 -179 92
-166 134 4 10 30 32 59 47 74 41 180 118 222 162 47 49 73 106 80 174 9 79 -6
99 -91 129 -38 14 -90 37 -114 52 -116 69 -478 78 -599 15 -191 -98 -304 -192
-402 -332 -56 -81 -223 -259 -267 -287 -19 -12 -82 -56 -138 -99 -83 -62 -114
-80 -160 -89 -30 -6 -85 -26 -122 -43 -58 -28 -78 -32 -147 -32 -70 0 -87 4
-140 32 -33 17 -87 37 -120 42 -39 7 -74 22 -100 42 -22 16 -55 37 -73 45 -18
8 -49 29 -70 47 -20 18 -55 46 -77 62 -72 52 -197 179 -229 233 -17 29 -40 68
-51 86 -44 71 -158 176 -235 215 -41 21 -103 53 -137 71 -70 37 -147 49 -312
50 -89 0 -118 -4 -200 -30 -53 -17 -118 -46 -146 -65 -27 -18 -67 -37 -88 -40
-48 -9 -67 -37 -67 -98 0 -39 8 -62 34 -106 55 -89 191 -206 276 -236 56 -20
80 -42 80 -74 0 -41 -46 -79 -123 -102 -39 -11 -93 -36 -121 -54 -28 -19 -71
-39 -96 -45 -25 -6 -65 -24 -90 -40 -25 -16 -72 -36 -105 -45 -33 -9 -89 -34
-125 -55 -36 -21 -83 -43 -105 -50 -22 -7 -58 -23 -80 -36 -39 -22 -91 -45
-282 -124 -51 -21 -109 -47 -130 -59 -154 -83 -343 -156 -478 -185 -76 -17
-142 -43 -355 -143 -52 -25 -117 -53 -145 -63 -27 -9 -67 -29 -89 -43 -81 -55
-140 -49 -251 28 -44 30 -100 66 -125 81 -105 63 -199 126 -221 150 -13 14
-45 36 -70 49 -26 14 -65 48 -93 81 -26 32 -66 71 -89 88 -23 17 -84 70 -136
118 -52 48 -98 88 -102 88 -5 0 -26 27 -49 60 -22 32 -60 73 -84 89 -26 18
-52 47 -64 73 -11 24 -41 66 -66 93 -26 29 -48 64 -52 83 -5 24 -14 36 -33 43
-35 14 -59 37 -82 79 -11 19 -35 56 -53 82 -19 26 -37 66 -41 88 -8 50 -46 96
-84 105 -38 8 -65 40 -84 98 -9 27 -32 66 -52 88 -19 21 -41 55 -50 75 -8 20
-28 51 -44 70 -28 32 -51 88 -51 127 0 12 8 17 29 17 37 0 51 -18 67 -88 14
-61 32 -80 133 -147 33 -22 47 -39 52 -62 3 -18 18 -47 31 -66 14 -18 29 -52
33 -77 12 -68 23 -80 77 -80 43 0 47 2 53 28 7 34 -6 71 -41 118 -26 33 -26
37 -13 76 12 38 12 42 -10 59 -13 11 -39 19 -60 19 -42 0 -52 13 -71 89 -6 23
-21 52 -33 62 -12 11 -39 34 -61 52 -32 28 -40 42 -47 87 -6 40 -17 62 -41 87
-52 54 -65 44 -88 -65 -14 -70 -21 -78 -49 -60 -32 20 -60 81 -70 154 -6 38
-16 73 -23 79 -44 33 -92 121 -110 198 -13 56 -30 99 -54 133 -27 40 -39 72
-51 138 -8 47 -19 86 -24 86 -14 0 -57 83 -74 145 -10 33 -28 80 -40 105 -13
25 -32 81 -44 125 -12 44 -37 125 -56 180 -48 143 -154 587 -193 810 -107 606
-161 1258 -142 1685 16 345 28 521 40 620 21 168 79 502 110 625 16 66 41 170
56 230 15 61 42 153 60 205 19 53 41 121 49 153 8 31 32 88 54 126 21 38 48
94 60 125 24 64 65 148 91 186 38 54 194 295 222 343 61 104 187 243 283 313
63 47 76 61 86 97 17 66 7 135 -30 194 -17 28 -38 80 -45 115 -7 35 -23 95
-34 133 -78 260 -97 591 -56 974 12 111 19 142 40 179 16 27 32 77 41 131 8
47 23 100 33 116 40 63 86 152 111 217 15 37 41 85 57 105 16 21 43 59 58 84
16 25 45 68 64 94 55 76 297 337 338 365 21 14 64 47 97 73 32 27 80 59 105
72 25 13 52 31 60 40 8 9 35 27 62 41 26 13 62 37 80 53 18 15 52 38 75 50 24
12 64 35 90 52 27 16 85 41 131 56 75 23 88 31 129 78 50 59 82 75 198 104 44
11 118 34 165 51 47 16 96 30 110 30 14 0 68 12 120 26 265 72 599 105 1046
105 457 -1 927 -37 1169 -91 50 -11 124 -24 165 -30 41 -6 143 -26 225 -45 83
-18 195 -41 250 -49 55 -8 150 -30 210 -49 61 -19 153 -42 205 -52 52 -9 112
-26 135 -38 23 -11 100 -30 180 -44 77 -13 187 -37 245 -53 58 -16 143 -34
190 -39 47 -6 124 -23 172 -40 60 -20 126 -33 205 -41 65 -6 190 -24 278 -40
88 -16 201 -34 252 -39 50 -6 115 -16 144 -21 28 -6 91 -10 140 -10 52 0 136
-10 211 -24 207 -42 299 -46 949 -46 l619 0 69 24 c74 26 156 41 286 51 44 4
125 17 180 30 55 13 154 35 220 50 127 28 173 42 325 98 112 42 417 195 469
236 20 16 52 36 71 46 83 42 221 160 307 262 172 204 208 251 235 299 15 27
34 60 42 74 32 52 114 247 120 283 4 21 22 77 41 125 30 78 35 103 40 218 7
143 20 217 42 239 19 19 26 19 46 -3z m-13648 -7346 c209 -60 315 -106 410
-180 22 -18 57 -43 78 -56 50 -33 94 -104 107 -170 5 -29 10 -154 10 -279 1
-124 5 -284 10 -356 25 -348 51 -930 46 -1015 -11 -173 -9 -982 3 -1039 12
-58 0 -103 -30 -109 -26 -5 -85 63 -154 180 -37 62 -83 133 -101 158 -18 25
-41 69 -52 98 -11 29 -32 69 -47 87 -14 19 -32 54 -41 77 -14 42 -76 174 -135
288 -15 31 -41 92 -58 135 -38 103 -103 261 -129 311 -11 22 -28 67 -36 101
-9 33 -31 94 -50 135 -18 41 -41 108 -50 150 -8 42 -27 105 -41 139 -14 35
-32 106 -41 159 -10 59 -28 120 -47 160 -44 91 -51 220 -12 220 21 0 41 -36
58 -103 9 -32 29 -79 45 -105 17 -26 36 -67 42 -92 7 -24 30 -77 51 -116 21
-39 39 -77 39 -85 0 -8 36 -86 81 -174 44 -88 91 -191 105 -229 13 -38 37 -90
54 -116 16 -26 39 -72 50 -104 18 -52 79 -150 104 -168 6 -4 16 -2 23 4 22 18
15 104 -16 196 -27 79 -30 103 -35 268 -7 219 4 326 49 459 19 55 39 120 45
145 7 24 29 73 51 109 44 73 79 160 79 196 0 46 -50 182 -81 221 -17 22 -40
58 -50 81 -9 23 -33 59 -51 80 -19 21 -43 50 -55 65 -29 39 -127 116 -167 133
-18 8 -85 19 -147 25 -170 17 -178 19 -190 42 -18 34 17 60 103 74 99 16 116
16 173 0z m16207 -13 c39 -22 50 -66 21 -81 -10 -5 -70 -12 -133 -15 -133 -6
-168 -17 -265 -82 -110 -74 -238 -228 -278 -335 -9 -25 -30 -65 -47 -90 -37
-56 -40 -118 -8 -170 66 -106 138 -265 148 -324 5 -35 17 -83 26 -107 33 -95
43 -167 45 -339 l2 -175 -31 -72 c-28 -62 -32 -83 -32 -155 0 -84 15 -129 37
-115 16 10 119 196 132 238 6 20 25 58 42 85 17 27 38 71 46 98 8 28 28 69 43
91 15 22 34 65 43 95 9 30 31 78 48 105 18 28 42 81 55 119 13 38 33 84 44
103 11 19 31 67 44 107 13 40 39 95 57 122 19 27 43 68 53 92 11 23 24 41 30
39 6 -2 12 -27 14 -56 2 -40 -3 -65 -24 -109 -16 -34 -31 -88 -36 -132 -12
-96 -20 -132 -51 -205 -14 -33 -35 -104 -46 -159 -11 -54 -32 -117 -45 -140
-13 -22 -34 -75 -46 -116 -12 -41 -34 -97 -48 -125 -13 -27 -33 -77 -42 -110
-19 -64 -76 -205 -140 -345 -21 -47 -46 -105 -55 -129 -9 -25 -25 -56 -34 -70
-25 -35 -103 -192 -135 -271 -14 -35 -32 -71 -40 -79 -8 -9 -45 -74 -81 -146
-37 -71 -74 -138 -83 -147 -38 -45 -82 3 -82 90 0 48 -32 328 -50 432 -5 30
-14 199 -19 375 -17 537 4 1158 50 1510 6 44 14 141 18 215 5 91 13 145 24
166 28 54 178 177 251 206 25 9 63 30 85 46 22 16 69 37 104 45 34 9 78 23 97
32 51 23 245 15 292 -12z m-9454 -5423 c34 -17 96 -37 143 -46 46 -9 109 -29
139 -45 40 -21 75 -30 130 -34 161 -13 235 -39 208 -72 -24 -30 -153 -85 -241
-104 -50 -11 -121 -33 -157 -48 -36 -16 -92 -36 -124 -46 -33 -9 -78 -29 -100
-45 -23 -15 -63 -35 -91 -44 -67 -22 -252 -113 -294 -144 -18 -14 -56 -34 -84
-44 -29 -11 -70 -36 -92 -56 -22 -21 -59 -46 -82 -56 -57 -25 -57 -46 0 -46
29 0 54 8 80 25 20 14 63 30 94 36 82 14 89 17 124 46 19 16 59 33 106 44 41
10 96 32 123 49 37 24 71 35 139 46 49 8 132 30 184 49 64 23 128 37 198 45
122 13 130 15 232 46 106 33 267 45 425 34 206 -15 232 -37 81 -70 -46 -10
-113 -32 -149 -49 -41 -19 -102 -36 -165 -46 -78 -13 -116 -25 -170 -54 -38
-21 -92 -44 -119 -50 -26 -7 -74 -25 -105 -40 -31 -16 -74 -34 -95 -41 -22 -7
-61 -25 -86 -40 -25 -15 -70 -36 -100 -48 -30 -11 -86 -36 -123 -56 -38 -20
-76 -36 -85 -36 -9 0 -57 -20 -107 -44 -133 -66 -304 -142 -350 -156 -22 -7
-62 -25 -90 -40 -27 -15 -68 -33 -90 -40 -22 -7 -55 -24 -74 -38 -18 -14 -61
-33 -95 -44 -33 -10 -86 -33 -116 -50 -30 -17 -86 -41 -124 -54 -38 -13 -79
-30 -90 -37 -12 -8 -39 -20 -61 -27 -22 -6 -68 -28 -103 -46 -35 -19 -98 -44
-140 -55 -42 -12 -98 -32 -125 -45 -71 -36 -351 -132 -421 -144 -33 -6 -88
-24 -121 -40 -34 -16 -94 -37 -135 -46 -41 -9 -115 -29 -165 -44 -49 -16 -142
-36 -205 -45 -126 -18 -204 -35 -293 -66 -37 -12 -109 -23 -200 -29 -78 -6
-162 -14 -186 -19 -59 -12 -96 -1 -96 29 0 35 41 58 133 74 50 9 107 27 142
45 32 17 100 39 150 51 51 11 111 30 134 43 22 13 64 32 91 42 28 10 77 32
110 50 33 18 78 38 100 45 57 18 224 108 263 142 18 15 61 42 95 58 67 32 152
96 152 114 0 16 -43 9 -74 -13 -14 -11 -53 -27 -86 -36 -33 -10 -76 -26 -96
-36 -21 -10 -70 -28 -110 -39 -41 -11 -103 -35 -139 -54 -36 -19 -90 -39 -120
-45 -30 -7 -74 -23 -97 -37 -23 -13 -91 -35 -150 -49 -59 -13 -145 -38 -191
-55 -55 -20 -122 -34 -205 -44 -71 -8 -146 -24 -177 -36 -72 -29 -187 -49
-280 -50 -42 0 -127 -7 -190 -16 -137 -19 -490 -14 -680 11 -63 8 -151 15
-195 15 -125 0 -195 45 -119 76 29 12 97 18 298 24 246 7 265 9 335 34 41 14
115 33 165 41 50 8 129 29 176 45 47 16 130 39 185 51 55 11 122 30 150 41 27
11 84 30 125 43 129 40 336 112 369 130 17 8 67 25 109 35 43 11 139 45 213
76 74 30 172 71 219 90 47 19 123 53 170 75 47 21 91 39 99 39 7 0 47 17 89
38 43 22 102 47 132 57 30 10 78 30 105 46 28 15 70 33 95 39 25 7 70 27 100
46 30 18 82 43 114 55 33 12 73 30 90 40 17 10 51 25 75 34 23 8 100 46 169
84 70 38 190 97 267 131 77 34 160 73 185 87 144 83 221 124 356 193 82 42
163 85 180 97 37 26 201 113 234 124 42 14 116 2 178 -31z m2676 0 c37 -22 71
-40 75 -40 3 0 37 -21 75 -45 38 -25 74 -45 81 -45 11 0 178 -83 390 -194 61
-32 132 -66 158 -77 27 -11 64 -31 82 -45 18 -13 60 -35 94 -49 33 -13 72 -32
86 -43 13 -11 50 -30 82 -42 32 -13 71 -32 86 -43 16 -10 61 -32 100 -47 40
-16 97 -42 127 -59 30 -17 62 -31 72 -31 9 0 54 -20 100 -44 45 -24 101 -49
123 -56 22 -7 58 -24 79 -38 22 -13 69 -34 105 -47 37 -12 86 -32 111 -45 24
-12 69 -31 99 -41 30 -11 75 -32 100 -48 25 -16 80 -39 121 -51 41 -12 93 -32
115 -45 22 -13 67 -31 100 -40 33 -10 83 -30 110 -45 28 -16 78 -36 112 -44
34 -9 84 -26 110 -37 93 -40 339 -120 443 -144 58 -13 130 -35 161 -49 31 -15
98 -35 148 -46 50 -11 121 -32 159 -46 37 -14 114 -31 172 -39 58 -8 163 -26
233 -40 94 -19 182 -28 336 -35 115 -5 216 -13 225 -16 23 -9 16 -33 -15 -56
-18 -14 -54 -22 -130 -29 -57 -5 -170 -16 -250 -24 -166 -17 -488 -19 -599 -4
-41 5 -152 16 -246 24 -141 11 -186 19 -260 44 -56 19 -126 34 -191 41 -77 7
-126 19 -195 46 -51 20 -122 42 -158 50 -81 17 -113 27 -170 51 -25 11 -67 25
-95 32 -27 7 -74 26 -103 42 -30 17 -84 39 -120 51 -37 11 -85 31 -108 44 -23
13 -67 29 -100 35 -43 8 -68 20 -96 45 -44 40 -98 48 -98 15 0 -19 13 -29 164
-126 35 -22 75 -50 90 -62 15 -12 51 -31 80 -42 29 -11 75 -33 101 -50 26 -17
78 -40 114 -52 36 -12 78 -31 94 -41 15 -11 53 -29 84 -39 31 -11 78 -31 105
-45 27 -14 75 -30 106 -35 31 -6 98 -28 148 -50 58 -25 119 -43 170 -49 101
-14 131 -26 150 -62 24 -46 12 -51 -90 -44 -50 3 -155 10 -232 15 -127 8 -149
12 -215 42 -61 27 -101 35 -231 51 -115 13 -179 26 -238 48 -44 16 -122 36
-173 43 -59 9 -112 24 -147 42 -30 16 -95 36 -143 46 -48 10 -118 31 -155 48
-37 17 -98 38 -137 47 -38 8 -93 29 -121 45 -29 16 -78 34 -110 40 -34 6 -82
24 -115 44 -30 19 -86 41 -125 51 -38 9 -94 29 -125 45 -30 15 -81 34 -112 42
-32 9 -80 30 -107 47 -27 18 -82 40 -121 50 -39 10 -87 29 -108 43 -20 13 -63
32 -96 41 -33 10 -82 30 -110 46 -27 15 -84 38 -125 50 -41 12 -95 32 -120 45
-25 12 -70 30 -100 40 -30 9 -89 32 -130 50 -41 18 -102 39 -135 45 -33 7 -83
26 -112 42 -34 19 -83 35 -140 45 -49 8 -108 24 -133 35 -67 30 -101 37 -255
49 -171 15 -182 15 -425 7 -231 -8 -297 -18 -381 -57 -77 -36 -165 -49 -192
-29 -18 13 -17 15 2 40 14 17 38 30 73 38 29 7 79 28 111 47 40 24 79 38 125
45 83 13 140 29 218 62 122 51 626 83 838 52 61 -9 159 -20 217 -25 87 -7 116
-14 166 -40 42 -21 91 -35 156 -44 52 -8 109 -22 126 -31 17 -9 44 -23 60 -31
16 -9 65 -22 108 -30 43 -8 106 -26 141 -40 35 -15 70 -25 79 -23 28 5 24 23
-9 43 -18 10 -51 33 -72 52 -22 18 -65 42 -95 54 -31 11 -72 31 -92 44 -20 13
-63 31 -95 40 -33 10 -90 34 -129 55 -54 29 -92 41 -168 53 -69 11 -110 23
-136 40 -29 19 -74 31 -192 51 -85 15 -186 36 -226 47 -39 11 -134 25 -210 33
-131 12 -183 25 -183 46 0 15 36 30 75 30 55 0 179 28 295 66 59 20 142 39
191 44 97 11 110 14 159 46 19 13 70 30 112 38 42 8 108 28 145 44 120 53 140
53 227 2z m-3531 -1526 c3 -4 -17 -28 -46 -55 -39 -36 -69 -53 -118 -68 -36
-11 -85 -36 -109 -55 -25 -19 -65 -43 -90 -52 -25 -9 -64 -30 -88 -46 -23 -16
-67 -38 -97 -48 -30 -10 -73 -30 -97 -43 -24 -14 -68 -33 -98 -42 -30 -10 -82
-32 -115 -50 -33 -19 -80 -39 -105 -45 -24 -7 -71 -26 -104 -42 -33 -17 -91
-39 -129 -50 -38 -10 -90 -30 -117 -43 -27 -13 -79 -33 -117 -44 -37 -10 -93
-29 -123 -41 -73 -29 -129 -46 -220 -65 -41 -9 -104 -29 -140 -45 -36 -16 -94
-34 -130 -40 -36 -5 -99 -21 -140 -35 -115 -39 -392 -76 -745 -100 -277 -19
-376 -19 -448 0 -31 8 -124 19 -207 25 -202 13 -271 25 -353 61 -38 17 -108
38 -154 46 -68 13 -95 23 -130 50 -25 19 -64 41 -86 49 -70 25 -348 194 -378
230 -7 9 -37 27 -66 39 -55 25 -141 104 -193 179 -15 22 -51 64 -80 91 -73 71
-100 128 -65 141 19 8 129 -61 145 -92 8 -13 35 -38 61 -55 26 -16 53 -37 60
-45 6 -8 68 -41 138 -74 69 -33 151 -73 181 -89 31 -16 84 -37 120 -46 35 -9
85 -27 111 -40 46 -24 128 -45 419 -111 136 -30 183 -36 385 -45 223 -11 571
-7 940 11 134 6 184 12 235 30 38 12 108 25 166 30 113 8 255 38 389 80 50 16
128 34 175 40 47 6 117 24 155 39 39 16 122 39 185 51 63 13 140 34 170 48 30
14 87 31 125 39 39 8 97 30 130 48 36 20 86 38 124 44 35 6 89 23 120 40 31
16 90 39 131 51 41 12 95 32 120 45 25 12 69 28 97 34 29 6 72 24 94 41 39 28
96 40 112 24z m2757 -49 c12 -19 30 -41 39 -48 10 -6 32 -33 48 -59 17 -27 59
-76 93 -110 34 -35 73 -80 87 -100 14 -20 37 -45 51 -54 44 -29 136 -106 145
-121 5 -8 40 -35 79 -61 39 -26 94 -63 123 -82 29 -19 62 -43 72 -52 10 -10
52 -31 91 -47 40 -17 84 -39 98 -50 14 -11 49 -27 77 -36 29 -10 89 -35 135
-56 45 -22 108 -46 140 -54 31 -8 80 -26 107 -40 28 -14 91 -32 139 -40 60 -9
95 -20 110 -34 34 -32 91 -51 155 -51 48 0 65 5 86 23 16 13 24 28 20 37 -11
25 -108 97 -176 130 -34 16 -72 39 -83 49 -12 10 -42 30 -68 45 -43 25 -68 59
-54 73 13 13 78 -11 116 -42 23 -19 60 -40 83 -46 26 -7 56 -26 80 -50 20 -22
55 -46 78 -54 22 -8 54 -26 70 -40 17 -13 49 -29 72 -35 42 -10 90 -31 157
-68 89 -49 469 -158 600 -172 52 -6 174 -15 270 -20 96 -6 233 -14 304 -18 71
-5 289 -5 483 -1 195 4 366 4 381 0 42 -11 39 -37 -5 -52 -30 -11 -178 -14
-698 -14 -688 0 -801 5 -1005 45 -52 11 -136 24 -187 30 -51 5 -102 14 -115
19 -20 7 -153 34 -458 92 -30 6 -107 28 -170 49 -63 21 -142 43 -175 49 -32 6
-76 22 -97 36 -22 15 -70 31 -113 40 -58 11 -105 30 -205 85 -71 38 -153 79
-181 90 -28 12 -70 33 -93 49 -22 15 -69 43 -104 61 -35 19 -90 58 -123 87
-33 29 -82 65 -110 79 -64 32 -196 158 -256 243 -95 135 -180 331 -144 331 5
0 19 -16 31 -35z m1547 9 c32 -15 94 -44 138 -65 44 -22 89 -39 100 -39 11 0
76 -20 145 -43 69 -24 143 -47 165 -51 22 -4 64 -21 94 -37 29 -17 94 -39 143
-50 50 -11 110 -31 134 -45 31 -18 79 -31 164 -45 85 -14 138 -28 179 -49 40
-20 87 -33 147 -41 49 -6 124 -24 166 -40 92 -34 229 -58 388 -69 93 -6 128
-13 180 -36 64 -27 71 -28 345 -38 333 -11 810 -10 950 4 55 5 134 19 175 30
41 11 116 27 165 36 97 16 158 33 248 71 32 13 93 31 135 39 42 9 100 29 127
44 28 16 83 36 124 45 54 13 83 26 110 49 20 18 65 49 101 68 133 71 161 91
237 165 68 65 149 120 162 108 2 -2 -6 -29 -19 -59 -19 -47 -48 -81 -190 -219
-168 -164 -279 -261 -335 -289 -17 -9 -39 -26 -50 -38 -11 -12 -46 -35 -77
-51 -31 -16 -78 -42 -103 -58 -26 -17 -61 -33 -79 -37 -17 -3 -61 -21 -97 -40
-37 -18 -89 -39 -115 -45 -27 -7 -78 -25 -114 -40 -78 -33 -163 -55 -245 -64
-33 -3 -139 -17 -235 -32 -160 -23 -193 -25 -385 -19 -215 6 -322 14 -525 41
-288 38 -337 46 -423 74 -51 16 -130 35 -176 41 -86 12 -109 18 -176 50 -22
11 -83 29 -135 41 -52 12 -120 34 -151 50 -31 15 -86 35 -123 43 -36 9 -88 27
-114 40 -26 13 -75 32 -107 41 -33 10 -89 32 -125 50 -36 18 -83 38 -105 45
-22 7 -65 25 -95 40 -30 15 -71 31 -90 35 -40 9 -92 34 -146 70 -21 14 -62 33
-93 42 -30 8 -76 30 -102 48 -26 18 -68 37 -93 44 -27 7 -59 24 -78 44 -21 21
-55 39 -95 51 -52 16 -69 27 -103 67 l-41 49 30 0 c17 0 57 -12 88 -26z
m-2997 -104 c0 -9 -10 -34 -21 -55 -12 -22 -30 -58 -41 -80 -11 -22 -37 -60
-57 -85 -21 -25 -54 -72 -74 -105 -74 -125 -187 -209 -478 -358 -79 -41 -166
-86 -194 -101 -55 -29 -139 -63 -260 -107 -44 -16 -110 -43 -147 -60 -37 -17
-98 -35 -135 -40 -37 -6 -90 -19 -118 -29 -27 -9 -122 -32 -210 -49 -88 -18
-196 -41 -240 -51 -95 -23 -176 -36 -265 -45 -36 -4 -89 -15 -118 -26 -29 -10
-102 -23 -161 -28 -60 -6 -139 -15 -176 -22 -68 -12 -229 -9 -242 5 -13 12 15
23 136 51 64 15 151 36 194 46 42 10 139 42 215 72 75 30 162 59 192 66 33 7
76 26 104 46 27 19 71 42 99 51 27 9 71 30 97 46 27 16 63 31 81 31 30 2 33
-1 41 -38 10 -47 39 -75 78 -75 43 0 199 39 241 61 20 10 67 23 105 29 40 7
104 28 154 51 47 22 130 58 185 79 125 48 149 60 260 130 50 31 128 79 175
105 134 76 357 277 418 377 12 20 29 38 37 42 8 3 26 24 41 48 37 60 55 74 71
51 7 -9 13 -24 13 -33z m-1400 -575 c0 -12 -28 -35 -44 -35 -14 0 -5 30 12 39
24 14 32 13 32 -4z m-115 -97 c-9 -22 -69 -52 -90 -44 -16 6 -16 8 -3 29 16
24 78 50 91 38 4 -4 5 -15 2 -23z m-165 -88 c0 -5 -14 -17 -31 -26 -40 -20
-62 -4 -28 20 26 18 59 21 59 6z m-4232 -922 c12 -15 28 -104 37 -208 4 -42
24 -127 45 -195 21 -66 44 -140 50 -165 7 -25 27 -76 45 -115 18 -38 36 -86
40 -105 4 -19 22 -65 40 -101 18 -36 40 -93 50 -125 9 -32 27 -77 40 -99 13
-23 33 -72 45 -110 12 -39 37 -104 55 -145 19 -41 39 -95 45 -120 6 -25 24
-63 40 -85 15 -22 39 -67 52 -100 14 -33 36 -77 51 -98 14 -21 28 -52 32 -70
4 -18 24 -70 45 -117 88 -194 140 -326 225 -571 13 -37 32 -84 44 -106 11 -22
29 -78 41 -124 11 -46 32 -110 46 -142 35 -81 41 -102 59 -235 13 -93 25 -136
56 -207 22 -49 47 -105 55 -124 10 -23 18 -31 25 -24 30 30 38 199 14 279 -57
183 -68 989 -16 1254 27 143 41 278 41 409 0 61 9 193 21 293 16 148 27 204
57 293 31 91 40 110 57 110 29 0 32 -35 39 -455 8 -416 25 -643 61 -821 14
-68 32 -187 41 -264 8 -81 27 -184 44 -245 16 -58 38 -160 49 -226 11 -67 29
-144 40 -172 11 -27 31 -100 45 -162 14 -61 37 -137 51 -168 14 -31 34 -95 45
-142 10 -48 30 -114 43 -146 14 -33 35 -98 47 -144 12 -47 32 -103 45 -125 13
-22 31 -67 40 -100 10 -33 32 -87 50 -120 18 -33 36 -71 40 -85 22 -83 253
-531 349 -678 35 -53 73 -117 85 -140 12 -24 40 -67 62 -95 22 -29 68 -94 101
-146 33 -52 106 -146 161 -208 56 -62 127 -144 159 -181 147 -175 464 -468
619 -572 54 -36 137 -94 186 -129 85 -62 130 -90 276 -172 37 -21 81 -49 97
-63 16 -13 53 -32 82 -42 29 -9 68 -30 86 -45 36 -32 66 -42 108 -37 23 2 29
8 29 28 0 25 -26 46 -170 144 -28 19 -57 42 -65 51 -7 9 -35 28 -62 41 -27 13
-85 57 -131 98 -45 40 -102 85 -126 100 -24 15 -98 83 -166 149 -67 67 -142
141 -166 163 -52 49 -143 151 -202 226 -23 29 -80 96 -127 150 -145 164 -164
189 -275 363 -22 34 -51 75 -65 91 -14 17 -40 54 -58 84 -93 154 -131 220
-137 239 -3 11 -22 43 -41 71 -19 28 -50 83 -69 123 -18 40 -41 83 -49 97 -28
46 -104 224 -121 284 -9 33 -32 89 -50 125 -18 36 -41 95 -50 131 -10 36 -31
97 -46 135 -15 39 -35 103 -44 144 -10 40 -28 98 -42 129 -13 30 -31 100 -39
156 -8 55 -26 139 -39 186 -37 130 -73 375 -86 580 -6 110 -18 215 -29 260
-28 111 -37 304 -17 353 9 20 21 37 26 37 14 0 37 -38 45 -75 4 -16 30 -77 57
-135 66 -136 65 -135 125 -221 105 -154 129 -186 193 -259 37 -41 83 -95 103
-120 70 -88 256 -253 404 -359 138 -98 308 -213 361 -243 26 -16 80 -48 118
-73 82 -52 305 -167 361 -185 22 -7 73 -30 114 -50 41 -21 86 -41 100 -45 14
-4 50 -20 80 -36 30 -16 89 -37 131 -48 43 -10 103 -31 135 -46 61 -28 164
-59 409 -121 77 -20 161 -47 187 -60 26 -13 90 -31 145 -40 54 -8 127 -28 163
-44 36 -16 102 -35 148 -44 46 -9 116 -29 155 -44 40 -16 110 -39 157 -52 47
-12 107 -33 133 -46 26 -14 80 -32 120 -41 40 -8 97 -28 127 -44 30 -16 87
-39 125 -52 39 -13 87 -35 107 -49 20 -14 67 -33 105 -42 37 -10 91 -31 120
-47 29 -17 84 -39 123 -50 39 -10 88 -30 108 -44 20 -13 57 -31 82 -41 25 -10
56 -25 70 -34 14 -9 91 -49 172 -88 80 -40 159 -83 175 -96 15 -13 47 -33 71
-45 41 -21 126 -75 217 -138 22 -16 56 -36 75 -47 44 -23 108 -74 185 -146 69
-64 142 -117 170 -122 32 -5 30 34 -5 76 -16 22 -30 45 -30 52 0 8 -33 51 -72
95 -99 111 -150 174 -197 239 -21 30 -49 65 -62 76 -13 12 -46 48 -74 80 -87
100 -207 226 -285 299 -41 38 -122 119 -180 179 -159 166 -266 271 -502 495
-119 112 -263 256 -321 320 -57 64 -169 181 -248 261 -165 167 -323 339 -340
372 -16 30 -70 98 -135 170 -28 31 -73 89 -99 130 -27 40 -61 87 -76 103 -15
17 -49 68 -74 115 -26 47 -63 104 -82 127 -18 23 -47 75 -63 114 -17 39 -39
85 -49 103 -11 17 -29 56 -41 86 -11 30 -34 80 -50 111 -20 37 -35 90 -46 155
-10 60 -28 123 -46 161 -22 46 -32 86 -38 155 -12 124 -12 478 0 552 20 124
57 103 85 -49 10 -51 30 -114 46 -145 15 -30 48 -98 73 -150 58 -125 171 -275
287 -380 51 -47 115 -106 143 -133 77 -71 271 -224 314 -246 20 -10 93 -58
162 -105 69 -48 151 -103 183 -124 32 -20 79 -52 105 -69 26 -18 75 -46 109
-62 34 -16 77 -40 95 -54 18 -13 63 -41 101 -61 37 -20 102 -63 145 -95 42
-32 109 -76 147 -98 115 -67 376 -261 502 -374 28 -25 80 -68 115 -94 232
-173 496 -462 735 -803 75 -107 125 -194 211 -367 105 -212 133 -273 157 -355
13 -41 35 -102 49 -136 14 -33 33 -108 41 -165 16 -107 37 -156 90 -213 53
-57 65 -2 65 309 0 340 -17 792 -35 910 -8 55 -23 186 -35 290 -13 127 -28
215 -44 265 -13 41 -27 113 -31 160 -9 112 -28 202 -60 286 -14 38 -32 101
-40 141 -7 39 -25 94 -40 122 -14 28 -35 90 -46 138 -11 48 -33 112 -48 142
-16 31 -34 73 -41 94 -17 52 -108 231 -146 287 -17 25 -36 60 -42 79 -7 19
-29 57 -51 85 -88 117 -128 206 -93 206 5 0 26 -13 47 -30 21 -16 43 -30 50
-30 21 0 92 -68 129 -125 20 -30 46 -60 57 -65 36 -20 144 -122 184 -175 22
-29 95 -113 161 -187 67 -74 133 -153 148 -176 15 -24 41 -59 59 -80 50 -57
113 -143 132 -182 10 -19 28 -49 41 -66 13 -16 31 -48 40 -69 9 -21 34 -66 56
-98 81 -119 271 -500 299 -600 11 -38 32 -94 48 -125 16 -31 38 -88 50 -125
11 -37 34 -98 50 -135 18 -42 35 -106 44 -170 15 -106 33 -142 67 -142 29 0
39 47 50 230 6 96 22 236 35 310 13 74 29 187 35 250 8 83 18 130 37 170 13
30 31 93 40 140 8 47 23 110 34 140 11 30 31 91 45 135 14 44 43 116 64 160
22 44 42 94 46 110 4 17 21 59 39 95 18 36 52 103 75 149 65 132 86 161 116
161 31 0 48 -37 59 -125 4 -33 18 -82 32 -109 20 -38 27 -75 34 -160 5 -61 21
-187 35 -281 47 -303 44 -671 -7 -922 -12 -59 -22 -164 -26 -265 -5 -151 -4
-168 10 -168 28 0 57 42 79 115 12 38 34 93 49 120 15 28 35 77 43 111 9 34
27 91 41 127 13 36 36 107 50 158 14 50 37 114 51 141 13 26 33 90 44 141 10
50 31 123 45 162 15 38 40 135 55 215 16 80 38 171 49 203 11 33 28 110 36
173 9 62 27 146 41 186 13 41 33 140 44 227 11 86 23 162 25 169 3 7 12 68 20
135 9 67 23 176 31 242 9 66 17 179 18 250 2 92 8 141 19 168 21 50 98 146
147 186 22 17 65 64 95 104 30 40 75 97 100 127 52 64 192 259 222 310 12 19
26 55 33 80 6 25 19 60 27 78 30 64 95 26 109 -65 4 -25 15 -73 26 -107 11
-34 23 -109 28 -168 6 -74 15 -122 30 -155 12 -26 26 -82 31 -123 14 -130 48
-422 58 -500 6 -41 11 -111 11 -155 1 -44 8 -120 15 -170 8 -49 20 -247 27
-440 12 -374 3 -689 -28 -960 -8 -71 -21 -209 -28 -305 -16 -203 -48 -439 -76
-560 -25 -111 -28 -127 -40 -239 -6 -52 -22 -133 -35 -179 -13 -46 -29 -120
-35 -165 -7 -45 -23 -113 -36 -152 -14 -38 -36 -116 -49 -172 -13 -56 -36
-129 -49 -162 -14 -33 -37 -107 -50 -164 -14 -58 -36 -133 -50 -166 -13 -33
-32 -93 -41 -133 -9 -40 -27 -91 -39 -113 -13 -22 -33 -66 -44 -97 -12 -32
-37 -88 -56 -125 -18 -38 -41 -93 -49 -123 -9 -31 -55 -132 -102 -225 -47 -92
-85 -175 -85 -183 0 -21 -175 -346 -218 -405 -19 -26 -41 -69 -48 -95 -8 -26
-31 -69 -52 -94 -20 -26 -59 -84 -87 -129 -27 -46 -70 -111 -95 -145 -25 -35
-65 -98 -90 -141 -24 -43 -59 -94 -77 -114 -18 -19 -42 -53 -55 -75 -56 -95
-151 -217 -248 -318 -80 -82 -109 -119 -120 -154 -11 -33 -25 -53 -50 -70 -19
-13 -41 -34 -48 -48 -14 -26 -42 -33 -42 -9 0 8 9 23 20 33 11 10 27 41 35 68
8 27 31 69 50 93 19 24 35 49 35 55 0 17 109 225 137 262 12 17 32 57 43 90
11 32 31 75 45 94 13 19 31 55 40 80 9 25 30 70 47 100 17 30 41 84 54 120 29
84 111 265 140 310 12 19 30 62 39 95 10 33 30 84 47 112 16 29 42 90 57 135
16 46 54 153 86 238 31 85 67 189 79 230 13 41 33 95 46 120 13 25 36 88 50
140 53 185 101 346 121 396 11 29 31 107 45 175 14 68 34 149 44 179 27 82 46
163 65 279 9 58 30 148 46 200 17 53 37 137 45 186 8 50 24 126 34 170 11 44
24 116 30 160 5 44 19 145 29 225 11 80 34 204 52 275 30 124 31 136 26 275
-5 151 -11 180 -32 180 -15 0 -27 -29 -55 -135 -12 -44 -30 -100 -41 -124 -11
-25 -29 -81 -40 -125 -11 -44 -37 -116 -56 -160 -20 -45 -56 -126 -80 -181
-23 -55 -53 -118 -65 -140 -12 -22 -44 -83 -71 -135 -28 -52 -60 -108 -72
-125 -13 -16 -34 -53 -48 -80 -14 -28 -44 -75 -67 -105 -23 -30 -60 -86 -82
-125 -23 -38 -76 -117 -118 -175 -42 -58 -83 -115 -91 -126 -80 -119 -234
-306 -361 -439 -243 -256 -511 -574 -588 -699 -23 -38 -55 -87 -71 -110 -54
-75 -214 -350 -233 -401 -10 -27 -30 -69 -43 -91 -13 -23 -37 -77 -52 -120
-16 -44 -38 -99 -49 -124 -11 -25 -25 -72 -32 -105 -6 -33 -25 -102 -41 -153
-38 -120 -50 -242 -48 -475 2 -158 -1 -191 -13 -204 -27 -26 -54 -7 -79 55
-12 31 -37 82 -54 112 -18 30 -43 74 -56 97 -13 23 -43 68 -67 100 -24 32 -77
110 -119 173 -41 63 -90 132 -109 155 -19 22 -59 74 -89 115 -31 41 -112 134
-179 205 -68 72 -143 155 -167 185 -79 101 -574 583 -700 683 -30 23 -115 96
-190 162 -74 66 -179 154 -233 195 -54 41 -128 99 -164 127 -37 29 -80 57 -97
63 -16 6 -40 26 -53 45 -12 19 -37 42 -55 50 -17 8 -47 26 -65 40 -30 21 -62
25 -62 6 0 -15 94 -117 123 -133 29 -17 97 -78 141 -127 31 -35 65 -69 126
-128 114 -108 256 -265 425 -468 50 -60 110 -130 134 -156 24 -27 55 -66 70
-88 14 -21 53 -74 86 -118 32 -43 94 -130 136 -194 43 -64 82 -120 88 -124 6
-3 21 -25 32 -48 12 -23 36 -60 54 -82 18 -22 40 -56 50 -75 10 -19 29 -48 43
-65 14 -16 36 -54 49 -84 25 -57 85 -158 147 -250 20 -29 36 -58 36 -65 0 -6
14 -31 31 -56 16 -25 41 -69 54 -97 13 -29 35 -67 48 -85 40 -55 284 -542 307
-613 7 -22 28 -68 47 -103 23 -42 38 -86 44 -130 5 -37 15 -69 21 -71 22 -8
58 -50 58 -69 0 -11 -7 -26 -16 -33 -14 -11 -19 -10 -35 10 -11 13 -19 34 -19
46 0 25 -18 48 -51 65 -10 6 -26 25 -35 43 -10 18 -32 50 -51 72 -19 22 -45
65 -57 95 -12 30 -49 91 -83 135 -33 44 -70 99 -82 122 -12 24 -63 87 -114
141 -50 53 -110 120 -131 147 -22 28 -56 66 -75 87 -20 20 -58 64 -86 98 -27
34 -69 81 -92 104 -24 22 -143 139 -265 260 -123 120 -248 235 -279 255 -50
32 -120 91 -314 262 -29 25 -83 67 -121 92 -38 25 -98 69 -134 97 -57 44 -128
94 -271 191 -21 14 -58 42 -82 62 -25 20 -82 59 -128 86 -79 48 -216 139 -332
224 -28 21 -84 53 -122 72 -39 18 -82 42 -95 53 -14 11 -54 34 -90 52 -36 18
-78 42 -95 54 -16 11 -52 31 -80 44 -27 13 -65 35 -83 48 -18 14 -54 35 -80
46 -26 11 -61 31 -79 44 -18 14 -58 34 -90 46 -32 12 -74 31 -93 43 -82 50
-209 114 -256 129 -28 9 -73 31 -100 48 -27 17 -66 37 -86 44 -21 7 -57 26
-81 42 -23 16 -67 37 -97 47 -30 10 -80 33 -110 51 -30 18 -75 38 -100 44 -25
6 -63 26 -85 43 -35 28 -48 32 -100 32 -57 0 -60 -1 -60 -25 0 -21 9 -29 61
-50 34 -14 76 -38 94 -53 18 -15 55 -39 81 -53 27 -13 63 -37 81 -52 18 -16
76 -54 129 -85 52 -30 101 -62 107 -70 7 -8 49 -41 93 -73 141 -103 242 -185
324 -264 44 -42 114 -104 155 -138 41 -33 102 -91 135 -127 33 -37 108 -117
166 -178 312 -329 392 -422 552 -646 38 -53 82 -109 97 -126 15 -16 63 -82
107 -146 43 -64 105 -151 138 -195 33 -43 71 -98 85 -121 37 -62 120 -184 145
-213 12 -14 31 -48 42 -77 22 -53 63 -116 120 -182 37 -43 53 -80 53 -123 0
-21 10 -38 35 -61 25 -22 35 -39 35 -60 0 -24 -4 -28 -22 -25 -16 2 -27 15
-38 46 -11 28 -28 50 -48 62 -18 11 -40 37 -49 57 -10 21 -36 59 -58 84 -73
85 -112 134 -137 174 -14 22 -33 47 -43 55 -10 8 -45 47 -78 85 -100 116 -294
321 -432 455 -122 119 -185 174 -336 295 -35 28 -81 66 -103 85 -74 65 -211
166 -349 257 -224 148 -342 223 -352 223 -6 0 -42 18 -79 41 -37 22 -93 49
-123 60 -31 10 -72 31 -91 45 -19 15 -67 37 -106 49 -39 12 -89 34 -110 49
-50 34 -126 38 -126 6 0 -20 33 -42 83 -54 15 -4 45 -24 67 -44 21 -21 58 -45
82 -52 28 -9 68 -38 114 -81 38 -36 90 -79 115 -94 24 -15 58 -40 74 -55 17
-15 50 -40 75 -55 25 -15 79 -60 120 -99 41 -39 111 -103 155 -141 169 -147
359 -337 440 -440 71 -90 129 -158 196 -229 36 -39 112 -138 169 -221 57 -82
118 -168 135 -190 18 -22 45 -65 62 -95 16 -30 53 -93 83 -140 88 -141 92
-148 88 -176 -5 -47 -31 -53 -91 -21 -28 15 -81 36 -117 46 -36 10 -101 33
-145 50 -44 18 -125 43 -180 55 -55 13 -134 35 -175 49 -159 53 -278 87 -345
97 -38 6 -117 27 -175 45 -58 19 -159 46 -225 60 -66 14 -147 34 -180 45 -33
10 -87 24 -120 30 -33 6 -96 22 -141 35 -44 14 -113 31 -154 40 -41 9 -134 42
-207 75 -73 33 -136 60 -140 60 -4 0 -55 23 -113 51 -58 29 -152 74 -210 102
-58 28 -136 72 -175 98 -38 25 -85 54 -103 63 -19 10 -60 41 -91 69 -84 75
-152 131 -186 153 -123 78 -283 223 -387 351 -29 36 -87 106 -128 155 -41 50
-103 129 -137 177 -34 47 -72 100 -86 116 -37 46 -104 149 -175 270 -68 115
-221 425 -242 491 -7 22 -24 62 -38 89 -14 28 -38 95 -53 150 -15 55 -39 128
-53 162 -15 35 -32 105 -41 163 -19 138 -50 182 -83 119 -9 -18 -11 -58 -7
-149 7 -148 18 -209 51 -290 13 -33 30 -104 38 -157 8 -54 29 -136 46 -183 17
-47 43 -131 56 -188 13 -57 35 -125 49 -151 13 -27 29 -70 36 -97 6 -27 27
-78 47 -113 19 -35 79 -153 133 -261 54 -108 110 -211 124 -228 14 -17 40 -55
58 -84 76 -125 264 -373 317 -419 23 -20 112 -125 168 -198 48 -64 123 -135
202 -194 30 -22 82 -68 115 -102 33 -34 76 -73 95 -87 19 -14 82 -69 139 -122
58 -53 131 -109 163 -125 32 -17 89 -55 128 -86 38 -31 98 -69 132 -84 35 -16
74 -40 87 -55 14 -14 47 -33 75 -41 63 -19 96 -41 96 -64 0 -50 -79 -52 -167
-4 -26 14 -86 36 -133 48 -47 13 -123 42 -169 64 -47 23 -92 41 -100 41 -9 0
-41 16 -73 35 -31 20 -77 42 -102 49 -25 8 -67 29 -93 48 -26 19 -88 57 -138
83 -49 27 -112 63 -140 81 -27 18 -68 38 -89 46 -21 7 -57 29 -80 48 -69 60
-158 125 -214 155 -118 64 -773 715 -883 876 -24 35 -87 123 -140 194 -53 72
-104 146 -113 164 -10 18 -44 70 -75 114 -32 45 -74 114 -94 153 -19 38 -42
76 -50 83 -8 6 -28 42 -43 79 -16 37 -45 94 -66 126 -21 33 -38 65 -38 71 0 7
-29 70 -65 141 -36 71 -81 170 -99 219 -45 121 -100 254 -141 345 -18 41 -38
102 -44 135 -6 33 -24 98 -40 145 -16 47 -41 123 -54 170 -14 47 -36 112 -50
145 -14 33 -37 123 -51 200 -14 77 -32 160 -41 185 -9 24 -24 99 -35 165 -11
67 -31 152 -46 191 -21 56 -29 103 -40 243 -8 95 -17 177 -20 182 -2 4 -9 74
-13 154 -10 159 -22 195 -66 195 -56 0 -80 -73 -90 -285 -4 -71 -11 -151 -16
-177 -4 -26 -15 -148 -24 -270 -8 -123 -20 -278 -26 -345 -12 -148 -4 -598 16
-838 8 -93 16 -237 17 -320 3 -126 1 -150 -12 -150 -15 0 -24 30 -35 117 -4
34 -16 60 -40 88 -39 47 -51 84 -61 190 -4 41 -22 125 -41 185 -19 61 -43 164
-53 230 -11 66 -31 155 -45 198 -16 50 -29 121 -36 198 -5 66 -21 169 -34 229
-26 115 -49 318 -65 570 -14 223 -42 1039 -36 1049 3 5 10 159 16 342 18 601
41 899 85 1101 13 58 27 153 30 210 8 127 18 180 61 332 41 142 55 166 82 134z
m12568 -284 c19 -9 63 -51 99 -93 35 -42 72 -81 82 -87 10 -6 52 -57 93 -114
41 -56 96 -128 123 -158 26 -31 64 -81 83 -111 20 -31 49 -74 64 -96 15 -22
43 -71 62 -110 18 -38 64 -125 101 -192 38 -68 76 -147 86 -176 10 -28 32 -79
49 -112 16 -33 35 -81 42 -105 7 -25 27 -73 45 -107 22 -42 36 -87 44 -143 7
-44 27 -123 46 -174 19 -52 41 -131 49 -177 9 -46 25 -113 35 -149 36 -122 53
-235 61 -400 6 -116 16 -201 35 -285 34 -154 44 -380 33 -773 -8 -312 -11
-332 -74 -492 -31 -78 -38 -109 -40 -175 -3 -106 -4 -115 -14 -82 -5 16 -6 35
-3 43 3 8 -4 96 -16 196 -11 101 -27 284 -35 408 -14 204 -18 233 -45 310 -17
47 -38 135 -47 195 -9 61 -28 141 -44 181 -16 39 -32 88 -35 110 -4 21 -24 77
-46 124 -21 47 -45 117 -54 155 -9 39 -31 97 -50 130 -18 33 -51 104 -74 159
-23 54 -56 124 -75 155 -18 31 -55 100 -81 155 -26 54 -64 121 -84 150 -39 57
-74 122 -238 448 -62 123 -117 246 -123 273 -6 28 -26 86 -45 130 -18 44 -37
98 -40 120 -4 22 -22 100 -41 172 l-35 133 -2 263 c-2 237 0 265 16 290 20 31
44 34 93 11z m-10153 -549 c24 -30 51 -76 61 -103 9 -26 44 -94 76 -152 33
-58 80 -145 105 -195 65 -131 117 -216 181 -298 31 -39 67 -94 81 -122 14 -27
38 -66 53 -85 15 -19 39 -55 54 -80 15 -25 52 -74 82 -110 30 -36 92 -114 138
-175 46 -60 128 -157 181 -215 53 -58 129 -141 168 -184 84 -92 89 -97 195
-196 44 -41 123 -115 174 -163 52 -48 122 -107 155 -130 57 -40 135 -96 291
-211 36 -28 109 -74 162 -104 52 -29 104 -62 115 -72 11 -11 45 -30 76 -44 30
-13 69 -36 86 -50 17 -14 50 -33 74 -41 24 -9 70 -31 104 -49 33 -19 93 -44
133 -57 71 -23 144 -70 130 -84 -4 -4 -61 -3 -128 3 -111 10 -125 14 -178 46
-43 27 -76 38 -132 46 -48 7 -92 21 -125 39 -28 16 -86 37 -130 46 -44 10
-105 30 -135 45 -30 15 -82 35 -115 45 -33 9 -81 29 -106 45 -25 15 -81 40
-124 55 -104 36 -342 160 -421 220 -18 13 -56 35 -85 48 -53 23 -150 84 -239
149 -94 69 -326 267 -356 304 -17 22 -86 96 -152 166 -115 121 -192 219 -192
244 0 7 -17 36 -37 65 -20 30 -51 89 -69 131 -17 42 -41 89 -52 103 -11 14
-30 55 -41 90 -12 35 -32 80 -45 99 -14 21 -29 64 -35 103 -7 38 -23 109 -36
159 -32 117 -43 233 -47 475 -2 173 -1 199 15 222 10 15 24 27 32 27 8 0 34
-25 58 -55z m3926 -54 c31 -16 90 -45 131 -65 85 -41 192 -101 235 -132 17
-12 47 -29 68 -37 54 -23 192 -130 331 -258 34 -31 95 -81 136 -111 41 -30
110 -93 154 -139 43 -46 112 -120 155 -163 42 -44 84 -92 93 -108 10 -15 37
-52 60 -82 41 -52 88 -115 164 -218 19 -26 43 -67 54 -92 10 -24 34 -62 53
-83 51 -57 80 -107 164 -286 42 -89 86 -178 99 -197 12 -19 30 -62 39 -95 9
-33 27 -71 40 -85 12 -14 28 -35 34 -47 14 -28 27 -193 15 -193 -24 0 -57 37
-85 93 -16 34 -56 96 -89 137 -33 41 -73 98 -90 125 -17 29 -91 109 -177 190
-81 77 -166 158 -188 180 -55 53 -170 147 -202 164 -48 25 -233 151 -341 231
-26 20 -87 64 -136 99 -49 35 -122 91 -161 125 -39 33 -104 88 -143 121 -188
156 -431 493 -467 647 -8 37 -31 99 -50 140 -38 80 -44 122 -18 150 23 25 56
23 122 -11z m2089 -2454 c10 -20 10 -32 2 -48 -14 -25 -27 -16 -39 27 -16 56
12 72 37 21z m-5877 -4813 c8 -9 33 -25 56 -35 51 -22 75 -61 52 -85 -24 -23
-63 -2 -94 50 -14 24 -32 50 -40 56 -8 7 -15 16 -15 21 0 15 27 10 41 -7z"/>
<path d="M20412 22808 c-14 -14 -16 -38 -3 -38 10 0 26 39 19 46 -2 2 -10 -2
-16 -8z"/>
<path d="M12165 22039 c-163 -7 -329 -35 -392 -67 -21 -11 -61 -27 -88 -35
-51 -15 -220 -98 -284 -140 -19 -12 -59 -45 -90 -72 -31 -28 -87 -75 -125
-105 -49 -40 -79 -74 -109 -125 -22 -38 -60 -101 -85 -139 -25 -38 -57 -103
-73 -145 -15 -42 -39 -101 -53 -132 -39 -89 -52 -169 -38 -236 21 -102 66
-119 149 -56 26 20 86 53 133 73 80 35 237 80 277 80 10 0 43 12 73 26 39 18
75 26 125 28 55 2 87 10 151 39 128 58 296 97 417 97 128 0 327 17 381 31 23
6 79 11 126 10 47 0 123 6 169 15 83 16 164 13 176 -6 10 -16 -8 -38 -62 -79
-42 -31 -66 -41 -137 -54 -101 -18 -198 -69 -320 -166 -43 -34 -109 -77 -146
-96 -37 -19 -88 -51 -112 -72 -24 -21 -66 -54 -93 -75 -99 -73 -356 -374 -498
-583 -15 -22 -43 -62 -62 -89 -46 -63 -46 -97 -1 -142 19 -19 41 -34 50 -34 9
0 34 16 56 36 57 52 125 62 321 46 171 -15 280 -33 366 -63 32 -11 114 -33
183 -49 69 -16 138 -33 153 -39 15 -6 81 -20 145 -31 64 -11 151 -32 192 -45
41 -14 113 -30 159 -36 47 -5 89 -12 93 -15 31 -19 317 -36 650 -38 203 -2
371 -5 374 -9 4 -3 -6 -12 -22 -18 -16 -7 -67 -29 -114 -50 -47 -21 -105 -43
-130 -48 -25 -6 -92 -26 -150 -46 -255 -86 -584 -146 -810 -146 -141 -1 -460
43 -524 72 -37 16 -62 20 -102 17 -60 -5 -69 -10 -61 -33 9 -23 183 -133 230
-146 23 -6 78 -26 122 -44 44 -18 129 -43 189 -55 60 -12 127 -28 150 -36 22
-9 73 -22 111 -30 97 -21 494 -54 646 -54 150 0 492 34 569 56 30 9 113 31
183 50 71 18 145 43 165 54 20 11 78 34 127 51 50 17 126 50 170 74 208 111
242 130 275 155 19 15 51 35 70 45 19 10 71 46 115 80 125 97 219 155 250 155
21 0 44 -15 89 -60 34 -32 120 -117 192 -187 72 -70 140 -144 151 -163 20 -33
66 -120 157 -293 23 -43 51 -97 63 -120 14 -26 26 -76 33 -131 23 -184 43
-235 92 -223 42 11 59 51 80 191 18 117 20 203 25 809 4 472 2 717 -6 805 -18
197 -50 432 -66 482 -8 25 -19 90 -25 145 -13 130 -18 150 -47 209 -14 27 -34
93 -44 145 -11 53 -32 124 -48 157 -16 34 -36 87 -45 117 -30 104 -72 185
-105 202 -34 17 -48 13 -107 -32 -17 -12 -35 -23 -40 -23 -5 0 -45 -18 -89
-40 -91 -45 -167 -59 -329 -60 -82 0 -131 7 -290 44 -105 25 -227 50 -272 56
-91 12 -110 17 -207 54 -54 21 -96 28 -210 35 -104 7 -165 17 -227 36 -100 30
-168 41 -356 55 -97 7 -174 20 -254 42 -90 24 -146 32 -260 38 -80 4 -199 17
-265 29 -325 56 -834 85 -1200 70z m788 -189 c75 -11 116 -29 164 -70 40 -35
127 -50 278 -48 104 2 114 1 182 -30 l72 -32 188 6 c103 3 310 1 458 -3 l270
-9 125 -37 c69 -20 143 -41 165 -47 22 -5 49 -16 60 -24 19 -14 19 -15 -9 -26
-17 -6 -163 -15 -350 -21 -411 -12 -528 -22 -650 -53 -127 -34 -204 -34 -274
-1 -67 31 -137 33 -218 4 -41 -14 -102 -23 -204 -29 -80 -5 -210 -14 -290 -20
-184 -13 -220 -15 -299 -12 -61 2 -65 4 -102 45 l-39 42 -93 -1 c-69 0 -105
-6 -147 -22 -30 -12 -85 -26 -122 -31 -37 -5 -73 -13 -79 -17 -7 -4 -49 -10
-94 -15 -63 -5 -94 -14 -136 -37 -82 -45 -186 -84 -208 -77 -45 14 -38 82 12
116 61 43 139 126 135 146 -5 28 -53 28 -102 -1 -24 -14 -67 -35 -97 -46 -32
-13 -95 -56 -162 -112 -61 -50 -117 -91 -126 -92 -31 -2 -25 52 11 95 174 208
291 303 463 377 150 64 171 68 293 48 115 -18 179 -16 337 10 83 14 302 29
455 32 36 1 96 -3 133 -8z"/>
<path d="M21680 22029 c-184 -10 -268 -19 -495 -54 -93 -14 -237 -30 -320 -35
-129 -7 -162 -13 -238 -39 -72 -26 -115 -34 -225 -42 -208 -15 -293 -27 -418
-59 -67 -18 -141 -30 -177 -30 -95 0 -178 -17 -249 -50 -50 -23 -88 -32 -173
-41 -60 -6 -146 -21 -190 -34 -158 -46 -310 -68 -430 -62 -94 4 -129 11 -239
47 -100 33 -138 51 -168 78 -48 44 -95 48 -132 13 -22 -21 -28 -38 -56 -147
-5 -23 -23 -58 -39 -78 -20 -25 -31 -53 -36 -89 -4 -28 -24 -104 -45 -167 -21
-63 -50 -184 -64 -267 -15 -84 -36 -187 -47 -230 -13 -50 -23 -140 -29 -253
-6 -96 -21 -240 -35 -320 -47 -271 -44 -894 6 -1160 13 -69 21 -160 23 -265 3
-130 8 -173 25 -227 42 -131 91 -103 102 57 5 73 12 102 36 150 17 33 36 78
43 100 31 96 174 362 224 415 18 19 46 53 62 75 88 123 176 220 219 242 17 9
51 33 76 54 63 53 95 52 179 -4 36 -23 98 -70 139 -104 40 -35 94 -75 120 -89
25 -15 58 -38 72 -51 47 -44 368 -202 463 -229 49 -14 110 -36 135 -49 26 -13
76 -29 111 -36 36 -7 103 -27 150 -45 72 -27 107 -34 230 -43 80 -6 195 -16
255 -22 61 -6 160 -9 220 -6 100 4 160 9 455 36 57 6 131 21 185 39 50 16 128
35 175 42 53 7 113 24 160 45 41 18 100 38 130 45 58 13 124 43 135 60 4 6 27
21 53 34 60 31 92 61 92 88 0 19 -4 20 -68 16 -37 -3 -82 -13 -100 -22 -82
-42 -449 -84 -637 -72 -207 13 -445 59 -665 131 -74 24 -160 49 -190 55 -30 7
-89 27 -130 45 -41 17 -96 37 -122 45 -26 7 -52 18 -58 25 -20 24 91 29 329
15 179 -10 258 -10 381 -1 174 14 383 44 449 66 24 8 94 22 155 31 61 9 172
33 246 54 345 98 647 157 852 166 171 8 217 -1 277 -52 21 -19 49 -34 60 -34
61 0 83 97 36 161 -13 19 -37 56 -52 82 -118 205 -522 649 -668 734 -33 19
-69 43 -80 52 -28 25 -183 115 -225 131 -19 7 -56 29 -82 47 -34 25 -67 38
-125 49 -77 14 -110 31 -183 93 -34 28 -34 30 -17 48 23 23 147 24 227 1 30
-9 116 -19 190 -22 74 -4 187 -13 250 -21 63 -8 183 -19 265 -24 156 -9 157
-9 340 -83 71 -29 171 -59 235 -70 153 -28 282 -61 345 -88 39 -16 77 -30 85
-30 8 0 41 -18 74 -40 72 -49 114 -53 145 -14 31 39 28 130 -5 209 -36 84 -42
104 -49 157 -4 30 -19 66 -40 97 -19 27 -41 75 -49 107 -13 52 -23 66 -78 116
-71 64 -91 83 -151 148 -105 112 -224 197 -385 277 -172 84 -211 93 -243 54
-11 -13 -19 -31 -19 -40 0 -21 59 -144 93 -194 14 -21 33 -64 42 -95 9 -31 25
-73 36 -94 22 -42 25 -94 7 -101 -7 -2 -31 10 -52 27 -40 32 -286 266 -410
391 -39 39 -106 96 -150 128 l-79 57 -161 -2 c-89 0 -231 -5 -316 -9z m180
-180 c36 -5 94 -25 130 -43 36 -18 83 -39 104 -46 22 -7 76 -37 120 -67 201
-133 255 -184 259 -239 4 -57 -64 -56 -261 3 -65 20 -110 26 -181 27 -100 1
-100 1 -121 -56 l-10 -28 -197 0 c-109 0 -261 7 -338 15 -77 8 -159 15 -182
15 -23 0 -83 12 -133 26 -107 31 -177 29 -213 -4 -42 -39 -73 -44 -160 -26
-44 9 -98 23 -121 31 -82 29 -268 45 -611 52 -187 4 -348 11 -358 15 -10 5
-16 14 -14 20 2 6 73 34 158 63 203 67 278 75 769 77 l385 1 53 35 c54 34 55
34 200 41 136 6 154 9 246 43 137 50 330 69 476 45z m1285 -205 c11 -14 57
-64 102 -111 59 -62 88 -102 102 -141 27 -71 27 -82 -5 -82 -19 0 -46 20 -100
75 -41 41 -74 78 -74 83 0 5 -27 40 -60 77 -64 73 -82 111 -59 126 22 14 72 0
94 -27z"/>
<path d="M11230 16410 c-15 -37 -4 -55 42 -64 29 -6 58 6 58 24 0 17 -53 70
-70 70 -10 0 -23 -12 -30 -30z"/>
<path d="M15490 16185 c-17 -21 -5 -45 23 -45 34 0 54 25 37 45 -16 19 -44 19
-60 0z"/>
<path d="M11956 15368 c-24 -33 -20 -48 12 -48 37 0 65 21 61 46 -6 29 -53 31
-73 2z"/>
</g>
</svg>
